<svg xmlns="http://www.w3.org/2000/svg" width="23.031" height="19" viewBox="0 0 23.031 19">
  <defs>
    <style>
      .cls-1 {
        fill: #ed4145;
        fill-rule: evenodd;
      }
    </style>
  </defs>
  <path id="heart.svg" class="cls-1" d="M973.318,2004.43a6.822,6.822,0,0,0-5.207-2.43,7.193,7.193,0,0,0-4.611,1.67,7.51,7.51,0,0,0-4.612-1.67,7.06,7.06,0,0,0-5.207,2.43,7.431,7.431,0,0,0-.446,8.82c3.719,5.93,8.48,7.45,9.818,7.75H963.5a0.47,0.47,0,0,1,.446,0c1.339-.3,6.1-1.82,9.818-7.75A7.4,7.4,0,0,0,973.318,2004.43Z" transform="translate(-952 -2002)"/>
</svg>
