<svg id="linkedin.svg" xmlns="http://www.w3.org/2000/svg" width="31.812" height="32" viewBox="0 0 31.812 32">
  <defs>
    <style>
      .cls-1 {
        fill: #0e6ec0;
      }

      .cls-2 {
        fill: #fff;
        fill-rule: evenodd;
      }
    </style>
  </defs>
  <circle id="Shape_207_copy_2" data-name="Shape 207 copy 2" class="cls-1" cx="15.906" cy="16" r="15.906"/>
  <path id="Linked_In" data-name="Linked In" class="cls-2" d="M919.8,2071.3a1.083,1.083,0,0,1,1.146-1.01h13.212a1.083,1.083,0,0,1,1.146,1.01v12.05a1.083,1.083,0,0,1-1.146,1.01H920.943a1.083,1.083,0,0,1-1.146-1.01V2071.3h0Zm4.97,10.74v-6.35h-2.283v6.35h2.283Zm-1.141-7.22a1.283,1.283,0,1,0-.015,0h0.015Zm2.4,7.22h2.284v-3.55a1.307,1.307,0,0,1,.075-0.51,1.241,1.241,0,0,1,1.171-.77,1.177,1.177,0,0,1,1.157,1.43v3.4H933v-3.64c0-1.95-1.127-2.86-2.628-2.86a2.312,2.312,0,0,0-2.073,1.07h0.015v-0.92H926.03c0.03,0.6,0,6.35,0,6.35h0Z" transform="translate(-911.594 -2061)"/>
</svg>
