<svg xmlns="http://www.w3.org/2000/svg" width="24.062" height="24" viewBox="0 0 24.062 24">
  <defs>
    <style>
      .cls-1 {
        fill: #767676;
        fill-rule: evenodd;
      }
    </style>
  </defs>
  <path id="search.svg" class="cls-1" d="M450.5,446.874a9.685,9.685,0,0,0,1.594-2.753,9.023,9.023,0,0,0,.586-3.247,9.132,9.132,0,0,0-.738-3.656,9.367,9.367,0,0,0-2.016-2.976,9.591,9.591,0,0,0-2.988-2,9.356,9.356,0,0,0-7.289,0,9.6,9.6,0,0,0-2.988,2,9.383,9.383,0,0,0,0,13.265,9.6,9.6,0,0,0,2.988,2,9.4,9.4,0,0,0,6.984.129,9.5,9.5,0,0,0,2.813-1.687l7.265,7.312a0.737,0.737,0,0,0,1.079,0,0.765,0.765,0,0,0,0-1.055Zm-10.277,1.278a7.86,7.86,0,0,1-2.507-1.7,8.116,8.116,0,0,1-1.688-2.507,7.9,7.9,0,0,1,0-6.141,8.133,8.133,0,0,1,1.688-2.508,7.874,7.874,0,0,1,2.507-1.7,7.9,7.9,0,0,1,6.141,0,7.878,7.878,0,0,1,2.508,1.7,8.147,8.147,0,0,1,1.687,2.508,7.9,7.9,0,0,1,0,6.141,8.131,8.131,0,0,1-1.687,2.507,7.865,7.865,0,0,1-2.508,1.7A7.9,7.9,0,0,1,440.222,448.152Z" transform="translate(-433.938 -431.5)"/>
</svg>
