<svg id="twitter.svg" xmlns="http://www.w3.org/2000/svg" width="31.813" height="32" viewBox="0 0 31.813 32">
  <defs>
    <style>
      .cls-1 {
        fill: #16a1fe;
      }

      .cls-2 {
        fill: #fff;
        fill-rule: evenodd;
      }
    </style>
  </defs>
  <circle id="Shape_207_copy" data-name="Shape 207 copy" class="cls-1" cx="15.907" cy="16" r="15.907"/>
  <path id="twitter" class="cls-2" d="M883.063,2072.56a6.817,6.817,0,0,1-1.921.49,3.215,3.215,0,0,0,1.471-1.74,6.95,6.95,0,0,1-2.125.76,3.442,3.442,0,0,0-2.441-.99,3.252,3.252,0,0,0-3.345,3.15,2.983,2.983,0,0,0,.086.72,9.718,9.718,0,0,1-6.894-3.29,2.963,2.963,0,0,0-.453,1.58,3.13,3.13,0,0,0,1.488,2.63,3.493,3.493,0,0,1-1.515-.4v0.04a3.2,3.2,0,0,0,2.683,3.09,3.64,3.64,0,0,1-.881.11,4.317,4.317,0,0,1-.629-0.05,3.338,3.338,0,0,0,3.124,2.19,6.957,6.957,0,0,1-4.952,1.3,9.842,9.842,0,0,0,5.127,1.42,9.178,9.178,0,0,0,9.518-8.97c0-.14,0-0.28-0.01-0.41A6.7,6.7,0,0,0,883.063,2072.56Z" transform="translate(-858.281 -2061)"/>
</svg>
