<svg id="youtube.svg" xmlns="http://www.w3.org/2000/svg" width="31.782" height="32" viewBox="0 0 31.782 32">
  <defs>
    <style>
      .cls-1 {
        fill: #ea0b10;
      }

      .cls-2 {
        fill: #fff;
        fill-rule: evenodd;
      }
    </style>
  </defs>
  <circle id="Shape_207_copy_3" data-name="Shape 207 copy 3" class="cls-1" cx="15.891" cy="16" r="15.891"/>
  <path id="youtu_be" data-name="youtu be" class="cls-2" d="M984.054,2084.03h-8.736a2.526,2.526,0,0,1-2.514-2.53v-2.04a2.526,2.526,0,0,1,2.514-2.53h8.736a2.527,2.527,0,0,1,2.514,2.53v2.04A2.527,2.527,0,0,1,984.054,2084.03Zm-6.9-6.2h-2.409v0.69h0.812v4.06h0.785v-4.06h0.812v-0.69Zm2.294,1.24h-0.7v2.66a0.892,0.892,0,0,1-.216.19,0.409,0.409,0,0,1-.194.08,0.171,0.171,0,0,1-.144-0.06,0.322,0.322,0,0,1-.043-0.18v-2.69H977.46V2082a0.749,0.749,0,0,0,.122.47,0.42,0.42,0,0,0,.364.16,0.9,0.9,0,0,0,.4-0.11,1.717,1.717,0,0,0,.4-0.33v0.39h0.7v-3.51Zm2.526,0.84a1.058,1.058,0,0,0-.174-0.66,0.6,0.6,0,0,0-.5-0.22,0.757,0.757,0,0,0-.321.08,1.133,1.133,0,0,0-.3.25v-1.53h-0.705v4.75h0.705v-0.27a0.839,0.839,0,0,0,.3.23,0.725,0.725,0,0,0,.365.08,0.559,0.559,0,0,0,.473-0.2,0.867,0.867,0,0,0,.163-0.57v-1.94Zm2.415,1.5h-0.716v0.16a0.771,0.771,0,0,1-.07.4,0.287,0.287,0,0,1-.242.09,0.266,0.266,0,0,1-.236-0.11,0.763,0.763,0,0,1-.068-0.38v-0.66h1.332v-0.9a1.054,1.054,0,0,0-.256-0.76,0.967,0.967,0,0,0-.735-0.27,1.058,1.058,0,0,0-.763.29,0.988,0.988,0,0,0-.3.74v1.58a1.105,1.105,0,0,0,.269.79,0.933,0.933,0,0,0,.738.29,1.04,1.04,0,0,0,.781-0.27,1.115,1.115,0,0,0,.262-0.81v-0.18Zm-1.332-1.4a0.548,0.548,0,0,1,.072-0.32,0.289,0.289,0,0,1,.239-0.09,0.277,0.277,0,0,1,.231.09,0.547,0.547,0,0,1,.074.32v0.35h-0.616v-0.35Zm-2.048,2.06a0.337,0.337,0,0,1-.169-0.04,0.453,0.453,0,0,1-.164-0.12v-2.18a0.447,0.447,0,0,1,.143-0.11,0.384,0.384,0,0,1,.148-0.03,0.269,0.269,0,0,1,.217.09,0.42,0.42,0,0,1,.073.27v1.81a0.391,0.391,0,0,1-.06.24A0.225,0.225,0,0,1,981.009,2082.07Zm1.791-6.78a1.57,1.57,0,0,1-.452.36,0.988,0.988,0,0,1-.454.12,0.507,0.507,0,0,1-.41-0.17,0.842,0.842,0,0,1-.137-0.52v-3.22h0.783v2.96a0.3,0.3,0,0,0,.05.19,0.168,0.168,0,0,0,.16.06,0.4,0.4,0,0,0,.219-0.08,1.026,1.026,0,0,0,.241-0.2v-2.93h0.784v3.86H982.8v-0.43Zm-3.232.52a1.127,1.127,0,0,1-.824-0.29,1.012,1.012,0,0,1-.308-0.78v-2a0.9,0.9,0,0,1,.316-0.72,1.317,1.317,0,0,1,.851-0.26,1.133,1.133,0,0,1,.8.28,0.924,0.924,0,0,1,.31.72v2a0.994,0.994,0,0,1-.3.77A1.179,1.179,0,0,1,979.568,2075.81Zm0.344-3.1a0.282,0.282,0,0,0-.1-0.21,0.4,0.4,0,0,0-.252-0.07,0.353,0.353,0,0,0-.234.07,0.29,0.29,0,0,0-.088.21v2.1a0.351,0.351,0,0,0,.083.25,0.311,0.311,0,0,0,.239.09,0.349,0.349,0,0,0,.253-0.09,0.324,0.324,0,0,0,.094-0.25v-2.1Zm-2.567,3.01h-0.883v-2.08l-1.051-3.16H976.3l0.573,2.1h0.056l0.546-2.1h0.9l-1.027,3.07v2.17Z" transform="translate(-963.906 -2061)"/>
</svg>
